<svg xmlns="http://www.w3.org/2000/svg" viewBox="0 0 220 52" fill="none">
  <defs>
    <linearGradient id="g1" x1="0" y1="0" x2="1" y2="1">
      <stop offset="0%" stop-color="#00c2e0"/>
      <stop offset="100%" stop-color="#0077b6"/>
    </linearGradient>
  </defs>

  <!-- Icon: rounded square badge -->
  <rect x="1" y="1" width="50" height="50" rx="12" fill="url(#g1)"/>

  <!-- S letter -->
  <path d="M12 18.5 C12 16 14 14.5 16.5 14.5 L22 14.5 C24.5 14.5 26.5 16 26.5 18.5
           C26.5 21 24 22 19 23 C14 24 11.5 25 11.5 27.5
           C11.5 30 13.5 31.5 16.5 31.5 L23 31.5 C25.5 31.5 27.5 30 27.5 27.5"
        stroke="white" stroke-width="2.6" stroke-linecap="round" fill="none"/>

  <!-- I letter -->
  <line x1="31" y1="14.5" x2="31" y2="37.5" stroke="white" stroke-width="2.6" stroke-linecap="round"/>

  <!-- P letter -->
  <path d="M35.5 14.5 L35.5 37.5 M35.5 14.5 L40 14.5 C44 14.5 46.5 17 46.5 21
           C46.5 25 44 27.5 40 27.5 L35.5 27.5"
        stroke="white" stroke-width="2.6" stroke-linecap="round" fill="none"/>

  <!-- Company name -->
  <text x="62" y="24" font-family="'Segoe UI Semibold','Segoe UI',Arial,sans-serif"
        font-size="16" font-weight="700" fill="#1a2233" letter-spacing="-0.2">Smart IT</text>
  <text x="62" y="43" font-family="'Segoe UI Semibold','Segoe UI',Arial,sans-serif"
        font-size="16" font-weight="700" fill="#0099cc" letter-spacing="-0.2">Partner</text>

  <!-- Subtle underline accent -->
  <line x1="62" y1="48" x2="130" y2="48" stroke="#0099cc" stroke-width="1.5" stroke-linecap="round" opacity="0.35"/>
</svg>
